<svg version="1.2" xmlns="http://www.w3.org/2000/svg" viewBox="0 0 763 184" width="763" height="184">
	<title>logo_full.svg</title>
	<style>
		.s0 { fill: #000000 } 
	</style>
	<g id="Layer">
		<path id="Layer" class="s0" d="m202.5 0c1.3 0 1.5 10.9 1.5 92 0 81.1-0.2 92-1.5 92-1.3 0-1.5-10.9-1.5-92 0-81.1 0.2-92 1.5-92z"/>
		<path id="Layer" fill-rule="evenodd" class="s0" d="m102.4 20.2l28.1 0.3 0.6 10.4 10.4 0.6 0.6 13.4-10.6 0.6-0.3 5.2-0.3 5.3-21.2 0.2-21.2 0.3-0.3 3.2c-0.3 3.2-0.2 3.3 3.3 3.3 5.9 0 7.5 1.4 7.5 6.5v4.5h4.3c5.4 0 6.7 1.3 6.7 6.6v4.3l4.8 0.3 4.7 0.3 0.6 10.4 10.4 0.6 0.6 10.4 10.4 0.6 0.6 10.4 10.4 0.6 0.6 10.4 10.4 0.6 0.3 4.7 0.3 4.8h3.8c6.7 0 7.2 1 6.9 14l-0.3 11.5h-25l-0.6-10.4-10.4-0.6-1-10-10-1-1-10-4.5-0.3c-5.1-0.4-6-1.3-6-6.5v-3.7h-4.5c-4 0-4.7-0.3-5.5-2.6-0.6-1.4-1-3.8-1-5.4 0-2.7-0.3-2.9-4.7-3.2l-4.8-0.3-0.6-10.4-10.4-0.6-0.6-10.4-10.4-0.6-0.3-5.3-0.3-5.2h-6.9v21.4c0 23.8 0.4 22.6-7.1 22.6h-3.9v10h-6.9c-7.6 0-8.1-0.4-8.1-6.6 0-3.3-0.1-3.4-3.9-3.4-7.6 0-7.1 2-7.1-29.5v-28.3l2.3-0.6c1.2-0.3 3.7-0.6 5.4-0.6h3.2l0.3-15.8 0.3-15.7 16.3-0.3 16.2-0.2v-4.9c0-2.6 0.3-5.1 0.7-5.4 0.4-0.4 13.3-0.6 28.7-0.5zm26.1 2.3l-26.1-0.3c-14.3-0.1-26.3 0.1-26.7 0.5-0.4 0.3-0.7 2.6-0.7 5v4.3h54.1l-0.3-4.8zm-65.5 10.6h-20v9.9h20zm65.5 0.4l-31.7-0.2-31.8-0.2v9.9h64.1l-0.3-4.8zm11 0l-4.7-0.3-4.8-0.3v10.1h10.1l-0.3-4.8zm-76.5 10.5h-20v10h20zm66 0h-64v10h64zm-66 11h-20v10h20zm22 0h-20v10h20zm-43 11h-10v53h10zm21 0h-20v53h20zm22 0h-20v9.9h20zm11 0h-10.1l0.3 4.7 0.3 4.8 4.8 0.3 4.7 0.3zm-11 11h-10.1l0.3 4.7 0.3 4.8 4.8 0.3 4.7 0.3zm21.9 0h-20.8v20h11.6l-0.5 5.5-0.4 5.5h10l0.1-15.5zm10.6 10.5l-4.2-0.3c-2.2-0.2-4.3 0.1-4.6 0.5-0.3 0.4-0.5 7.7-0.6 16v15.3h20.8l-0.2-10.3-0.2-10.2-11 0.2zm22 22l-4.7-0.3-4.8-0.3v10.1h10.1l-0.3-4.8zm-87 11l-4.7-0.3-4.8-0.3v10.1h10.1l-0.3-4.8zm76 0l-4.7-0.3-4.8-0.3v10.1h10.1l-0.3-4.8zm21.5-0.4h-20v9.9h20zm0 10.9h-20v10h20zm11 0h-9v10h9zm-11 11h-9v10h9zm22 0h-20v10h20zm0 11h-20v9.9h20z"/>
		<path id="Layer" class="s0" d="m67.5 92c0.2 0 0.7 0.4 1 1 0.3 0.5-0.1 1-1 1-0.9 0-1.3-0.5-1-1 0.3-0.6 0.8-1 1-1z"/>
		<path id="Layer" class="s0" d="m89.4 114c1.8 0 2.1 0.6 0.7 1.5-0.5 0.3-1.2 0.1-1.6-0.5-0.3-0.5 0.1-1 0.9-1z"/>
		<path id="Layer" class="s0" d="m322.8 41.5c0.8 0.3 1.9 0.5 2.6 0.5 2.1 0 6.4 4.9 7.1 8 1.3 5.7-4.5 12-11.1 12-3.5 0-9.4-5.9-9.4-9.4 0-4.1 2.8-8.6 6.3-10.1 1.8-0.8 3.8-1.2 4.5-1z"/>
		<path id="Layer" class="s0" d="m383.3 42h8.9 8.8l-0.6 3.7c-1.3 9-5.1 41.8-4.8 42.2 1 1.2 4.1-1.9 10.3-10.3 4.2-5.7 8-9.8 9.3-10.1 1.3-0.3 5.8-0.5 10.1-0.3l7.8 0.3-9.1 11.5c-5 6.3-9.8 11.9-10.6 12.3-1.4 0.8-1.4 1.1-0.1 2.5 1.7 1.9 12.7 27.8 12.7 29.8 0 2.3-15.2 1.9-17.8-0.4-1.1-0.9-3.9-6.5-6.2-12.5-3.2-8.1-4.7-10.7-6-10.7-2.3 0-2.6 0.9-4.1 14.2l-1.2 10.8h-8.2c-4.5 0-8.4-0.2-8.7-0.5-0.2-0.3-0.1-3.1 0.3-6.3 0.4-3.1 2.6-21.6 5-41z"/>
		<path id="Layer" class="s0" d="m252.5 44c5.2 0 9.5 0.1 9.5 0.2 0 0.2-0.9 7.3-2 15.8-2.4 18.7-2.4 17-0.1 17 3.1 0 6.5-3.6 16.4-17.5 5.2-7.3 10.5-13.6 12-14.3 1.7-0.8 5.8-1.2 11.7-1l9.1 0.3-13.7 17.8c-7.5 9.8-14.3 18.1-15.1 18.4-1.1 0.4-0.9 1.1 1.1 3.2 1.9 2 19.6 38.7 19.6 40.6 0 0.3-4.2 0.5-9.3 0.5-6.4 0-9.9-0.4-11.3-1.4-1.2-0.8-4.9-7.9-8.4-15.8-3.5-7.9-6.8-14.8-7.4-15.4-1.4-1.5-7.3-2.8-7.9-1.7-0.3 0.4-1.2 6.9-2.1 14.3-0.9 7.4-1.9 15-2.2 16.7l-0.5 3.3h-8.9c-7.9 0-9-0.2-9-1.8 0-0.9 2-18.5 4.5-39.1 2.5-20.6 4.5-38 4.5-38.8 0-1 2.2-1.3 9.5-1.3z"/>
		<path id="Layer" fill-rule="evenodd" class="s0" d="m480.8 67.6c4 0.8 4-1-0.1 31.4l-3.2 25.5-5.7 0.3c-4.7 0.2-6.1-0.1-7.8-1.8-1.1-1.1-2-2.9-2-4.1 0-1.9-0.4-1.7-4.1 1.4-13.3 11.5-28.9 3.2-28.9-15.3 0-18.3 13.4-34.9 30.8-38 4.7-0.9 15.1-0.6 21 0.6zm-23.3 13.3c-6.8 4.2-10.5 11.3-10.5 20.2 0 6.7 1.6 9.9 5.1 9.9 5.3 0 10.9-10.2 12.3-22.5 0.4-3.3 0.9-6.8 1.2-7.8 0.7-2.4-4.1-2.3-8.1 0.2z"/>
		<path id="Layer" class="s0" d="m530.2 71.7c1.6 1.4 1.5 1.8-0.9 5.5-2.9 4.3-3.7 4.5-12.8 1.8-5.7-1.6-9.5-0.1-9.5 3.9 0 2.6 0.7 3.2 8.4 7 9.9 4.9 11.9 7.3 11.8 14.6-0.1 12.5-9.8 20.8-24.2 20.8-6.9 0-14.3-2.5-16.9-5.6-1.2-1.5-1-2.2 1.2-5.6 3.1-4.7 5.6-5.4 10.2-3 5.2 2.8 11 2.5 13.1-0.6 2.2-3.4 0.9-4.9-8.3-9.1-8.4-3.8-11.3-7.4-11.3-14.2 0-9.6 5.7-17 16-20.3 6.3-2.1 18.1 0.4 23.2 4.8z"/>
		<path id="Layer" fill-rule="evenodd" class="s0" d="m653.2 66.1c5.9-0.1 15.5 1.5 16.2 2.7 0.5 0.9-6.1 53.9-6.9 55.2-1 1.6-9.8 1.2-12.3-0.6-1.2-0.8-2.2-2.6-2.2-4 0-3.1-1.1-3-4.1 0.2-3.2 3.6-7.9 5.4-13.5 5.4-6.2 0-10.7-2.9-13.4-8.6-1.9-3.9-2.2-5.8-1.8-13.7 0.5-10.1 2.5-16 7.8-22.7 4-5.1 12.6-10.7 19.2-12.4 2.9-0.8 7.9-1.5 11-1.5zm-2.9 12.6c-1.7-1.1-8.9 2.4-12 5.7-3.2 3.5-6.3 11.7-6.3 16.8 0 1.6 0.7 4.4 1.4 6.3 4.5 10.6 15-3.4 17.1-22.7 0.3-3.1 0.3-5.8-0.2-6.1z"/>
		<path id="Layer" fill-rule="evenodd" class="s0" d="m722.7 68.6c5 3.8 6.8 8.9 6.8 19.4-0.1 11.1-2.2 18.1-8.1 26.1-6.9 9.4-19.2 13.6-27.4 9.4-3.5-1.8-3.6-1.6-4.6 9.5-0.4 4.1-1.1 8.1-1.7 8.7-1.1 1.5-15.3 1.8-16.1 0.5-0.3-0.5 1.5-17.2 3.9-37.3 2.5-20 4.5-36.7 4.5-37.2 0-1.2 12.5-0.8 13.8 0.5 0.7 0.7 1.2 2.5 1.2 4 0 3.5 1 3.5 4.1 0.2 1.3-1.5 4.2-3.5 6.4-4.6 5.1-2.4 13.4-2 17.2 0.8zm-21.9 15.2c-4.2 4.6-6.5 10.4-7.7 19.2-1 7.4-0.1 9 5.5 9 7.2 0 12.5-8.1 13.2-20.3 0.4-6.5 0.2-8.1-1.3-9.7-2.8-3.1-5.9-2.5-9.7 1.8z"/>
		<path id="Layer" class="s0" d="m320.6 67h8.7l-0.6 6.7c-0.4 3.6-1.9 16.7-3.3 29l-2.7 22.3h-8.8-8.8l0.5-3.3c0.5-3.5 6.4-53.5 6.4-54.2 0-0.3 3.9-0.5 8.6-0.5z"/>
		<path id="Layer" class="s0" d="m345.9 67c7.1 0 9.1 1.5 9.1 6.8l0.1 3.7 3.1-3.8c3.7-4.6 7.6-6.7 12.2-6.7 4.3 0 4.7 0.6 3.6 5.6-0.4 2.1-1.1 5.6-1.4 7.7-0.7 3.6-0.8 3.8-4 3.1-2.2-0.4-4.4 0-6.6 1.1-5 2.6-7.7 9.8-9.8 26.1l-1.7 13.9-8.8 0.3-8.8 0.3 0.6-3.3c0.5-3.3 6.5-52.6 6.5-54.1 0-0.4 2.7-0.7 5.9-0.7z"/>
		<path id="Layer" class="s0" d="m542.3 67c3.9 0 7.8 0.4 8.5 0.9 1 0.6 1.7 5.8 2.5 18.5 0.7 11.1 1.4 17.1 2 16.1 0.4-0.8 3.3-8.2 6.3-16.3 7.5-19.8 7-19.2 14.9-19.2 8 0 7.5-0.9 10 19 1 8 2.1 15.1 2.4 15.8 0.4 0.7 2.9-5.8 5.6-14.5 2.6-8.7 5.4-16.8 6.2-18.1 1.2-2 2.1-2.2 8.8-2.2 4.1 0 7.5 0.4 7.5 0.9 0 0.4-5.1 13.4-11.3 28.7l-11.3 27.9-7.1 0.3c-5.1 0.2-7.3-0.1-8.2-1.1-0.6-0.8-2.1-8.2-3.3-16.6-1.3-8.3-2.6-15.1-2.9-15.1-0.4 0-3 6.2-5.9 13.7-5.7 15.1-6.8 17.4-8.4 18.5-0.6 0.4-4.1 0.8-7.8 0.8-6.4 0-6.7-0.1-7.2-2.8-1.4-6.8-8.6-51.3-8.6-53.1 0-1.9 0.6-2.1 7.3-2.1z"/>
	</g>
</svg>