<svg version="1.2" xmlns="http://www.w3.org/2000/svg" viewBox="0 0 146 145" width="146" height="145">
	<title>logo.svg</title>
	<style>
		.s0 { fill: #000000 } 
	</style>
	<g id="Layer">
		<path id="Layer" fill-rule="evenodd" class="s0" d="m73.4 0.2l28.1 0.3 0.6 10.4 10.4 0.6 0.6 13.4-10.6 0.6-0.3 5.2-0.3 5.3-21.2 0.2-21.2 0.3-0.3 3.2c-0.3 3.2-0.2 3.3 3.3 3.3 5.9 0 7.5 1.4 7.5 6.5v4.5h4.3c5.4 0 6.7 1.3 6.7 6.6v4.3l4.8 0.3 4.7 0.3 0.6 10.4 10.4 0.6 0.6 10.4 10.4 0.6 0.6 10.4 10.4 0.6 0.6 10.4 10.4 0.6 0.3 4.7 0.3 4.8h3.8c6.7 0 7.2 1 6.9 14l-0.3 11.5h-25l-0.6-10.4-10.4-0.6-1-10-10-1-1-10-4.5-0.3c-5.1-0.4-6-1.3-6-6.5v-3.7h-4.5c-4 0-4.7-0.3-5.5-2.6-0.6-1.4-1-3.8-1-5.4 0-2.7-0.3-2.9-4.7-3.2l-4.8-0.3-0.6-10.4-10.4-0.6-0.6-10.4-10.4-0.6-0.3-5.3-0.3-5.2h-6.9v21.4c0 23.8 0.4 22.6-7.1 22.6h-3.9v10h-6.9c-7.6 0-8.1-0.4-8.1-6.6 0-3.3-0.1-3.4-3.9-3.4-7.6 0-7.1 2-7.1-29.5v-28.3l2.3-0.6c1.2-0.3 3.7-0.6 5.4-0.6h3.2l0.3-15.8 0.3-15.7 16.3-0.3 16.2-0.2v-4.9c0-2.6 0.3-5.1 0.7-5.4 0.4-0.4 13.3-0.6 28.7-0.5zm26.1 2.3l-26.1-0.3c-14.3-0.1-26.3 0.1-26.7 0.5-0.4 0.3-0.7 2.6-0.7 5v4.3h54.1l-0.3-4.8zm-65.5 10.6h-20v9.9h20zm65.5 0.4l-31.7-0.2-31.8-0.2v9.9h64.1l-0.3-4.8zm11 0l-4.7-0.3-4.8-0.3v10.1h10.1l-0.3-4.8zm-76.5 10.5h-20v10h20zm66 0h-64v10h64zm-66 11h-20v10h20zm22 0h-20v10h20zm-43 11h-10v53h10zm21 0h-20v53h20zm22 0h-20v9.9h20zm11 0h-10.1l0.3 4.7 0.3 4.8 4.8 0.3 4.7 0.3zm-11 11h-10.1l0.3 4.7 0.3 4.8 4.8 0.3 4.7 0.3zm21.9 0h-20.8v20h11.6l-0.5 5.5-0.4 5.5h10l0.1-15.5zm10.6 10.5l-4.2-0.3c-2.2-0.2-4.3 0.1-4.6 0.5-0.3 0.4-0.5 7.7-0.6 16v15.3h20.8l-0.2-10.3-0.2-10.2-11 0.2zm22 22l-4.7-0.3-4.8-0.3v10.1h10.1l-0.3-4.8zm-87 11l-4.7-0.3-4.8-0.3v10.1h10.1l-0.3-4.8zm76 0l-4.7-0.3-4.8-0.3v10.1h10.1l-0.3-4.8zm21.5-0.4h-20v9.9h20zm0 10.9h-20v10h20zm11 0h-9v10h9zm-11 11h-9v10h9zm22 0h-20v10h20zm0 11h-20v9.9h20z"/>
		<path id="Layer" class="s0" d="m38.5 72c0.2 0 0.7 0.4 1 1 0.3 0.5-0.1 1-1 1-0.9 0-1.3-0.5-1-1 0.3-0.6 0.8-1 1-1z"/>
		<path id="Layer" class="s0" d="m60.4 94c1.8 0 2.1 0.6 0.7 1.5-0.5 0.3-1.2 0.1-1.6-0.5-0.3-0.5 0.1-1 0.9-1z"/>
	</g>
</svg>